<?xml version="1.0" encoding="utf-8"?>
<!-- Generator: Adobe Illustrator 18.0.0, SVG Export Plug-In . SVG Version: 6.00 Build 0)  -->
<!DOCTYPE svg PUBLIC "-//W3C//DTD SVG 1.1//EN" "http://www.w3.org/Graphics/SVG/1.1/DTD/svg11.dtd">
<svg version="1.1" id="Layer_1" xmlns="http://www.w3.org/2000/svg" xmlns:xlink="http://www.w3.org/1999/xlink" x="0px" y="0px"
	 viewBox="0 0 227.5 61.5" enable-background="new 0 0 227.5 61.5" xml:space="preserve">
<g id="Front">
</g>
<g>
	<path d="M107.1,61.5h6.7L87.9,0h-6.7l-26,61.5h6.7l5.1-12.4h34.7L107.1,61.5z M69.7,43.1L84.4,7.9l14.7,35.1H69.7z"/>
	<path d="M206,0h-18.5v61.5h6.1V43.1H206c11.9,0,21.5-9.6,21.5-21.5S217.9,0,206,0z M206,36.9h-12.4V6.1H206
		c8.5,0,15.4,6.9,15.4,15.4S214.4,36.9,206,36.9z"/>
	<g>
		<path d="M47.4,48.9c-4.4,4-10.3,6.5-16.7,6.5c-13.6,0-24.6-11-24.6-24.6s11-24.6,24.6-24.6c6.4,0,12.2,2.5,16.7,6.5l6.1-2.6
			C47.9,3.9,39.7,0,30.7,0C13.7,0,0,13.8,0,30.7s13.8,30.8,30.7,30.8c9,0,17.1-3.9,22.8-10.1L47.4,48.9z"/>
	</g>
	<polygon points="175.3,0 150.7,24.6 126,0 119.9,0 119.9,61.5 126,61.5 126,8.8 150.7,33.3 175.3,8.8 175.3,61.5 181.4,61.5 
		181.4,0 	"/>
</g>
</svg>
